<svg width="427" height="451" viewBox="0 0 427 451" fill="none" xmlns="http://www.w3.org/2000/svg">
<rect width="427" height="451" rx="25" fill="white"/>
<g clip-path="url(#clip0_12_2)">
<path d="M291.917 91.0483C315.606 104.726 335.279 124.398 348.956 148.088C362.633 171.778 369.833 198.65 369.833 226.005C369.833 253.36 362.632 280.232 348.955 303.922C335.277 327.612 315.605 347.284 291.915 360.961C268.225 374.638 241.352 381.838 213.997 381.837C186.643 381.837 159.77 374.636 136.081 360.958C112.391 347.28 92.7194 327.608 79.0426 303.918C65.3658 280.227 58.1659 253.355 58.1666 226L58.2445 220.951C59.1173 194.038 66.9486 167.811 80.975 144.826C95.0014 121.841 114.744 102.883 138.279 89.7998C161.813 76.7165 188.336 69.9547 215.262 70.1735C242.188 70.3923 268.598 77.5843 291.917 91.0483ZM214 319.5C209.867 319.5 205.903 321.142 202.981 324.064C200.058 326.987 198.417 330.95 198.417 335.083C198.417 339.216 200.058 343.18 202.981 346.102C205.903 349.025 209.867 350.667 214 350.667C218.133 350.667 222.097 349.025 225.019 346.102C227.941 343.18 229.583 339.216 229.583 335.083C229.583 330.95 227.941 326.987 225.019 324.064C222.097 321.142 218.133 319.5 214 319.5ZM271.409 148.878L177.909 180.045C175.611 180.809 173.524 182.099 171.811 183.811C170.099 185.524 168.809 187.611 168.045 189.909L136.769 283.814L136.411 285.154L136.146 286.915L136.083 287.975V288.661L136.224 290.39L136.411 291.481L137.034 293.725L137.735 295.283L138.577 296.764L139.574 298.166L140.649 299.335L141.958 300.488L143.485 301.579L145.044 302.421L146.259 302.935L147.895 303.449L149.594 303.761L150.264 303.839L151.324 303.901H152.009L153.739 303.761L154.83 303.574L155.142 303.48L155.438 303.449L156.591 303.106L250.091 271.94C252.389 271.175 254.476 269.885 256.189 268.173C257.901 266.461 259.19 264.373 259.955 262.075L291.122 168.575C292.038 165.83 292.17 162.883 291.506 160.066C290.841 157.249 289.405 154.673 287.358 152.626C285.311 150.58 282.735 149.144 279.918 148.479C277.101 147.814 274.155 147.962 271.409 148.878ZM251.696 188.288L232.84 244.84L176.288 263.696L195.144 207.144L251.696 188.288ZM104.917 210.417C100.784 210.417 96.82 212.058 93.8975 214.981C90.9751 217.903 89.3333 221.867 89.3333 226C89.3333 230.133 90.9751 234.097 93.8975 237.019C96.82 239.941 100.784 241.583 104.917 241.583C109.05 241.583 113.013 239.941 115.936 237.019C118.858 234.097 120.5 230.133 120.5 226C120.5 221.867 118.858 217.903 115.936 214.981C113.013 212.058 109.05 210.417 104.917 210.417ZM323.083 210.417C318.95 210.417 314.987 212.058 312.064 214.981C309.142 217.903 307.5 221.867 307.5 226C307.5 230.133 309.142 234.097 312.064 237.019C314.987 239.941 318.95 241.583 323.083 241.583C327.216 241.583 331.18 239.941 334.102 237.019C337.025 234.097 338.667 230.133 338.667 226C338.667 221.867 337.025 217.903 334.102 214.981C331.18 212.058 327.216 210.417 323.083 210.417ZM214 101.333C209.867 101.333 205.903 102.975 202.981 105.898C200.058 108.82 198.417 112.784 198.417 116.917C198.417 121.05 200.058 125.013 202.981 127.936C205.903 130.858 209.867 132.5 214 132.5C218.133 132.5 222.097 130.858 225.019 127.936C227.941 125.013 229.583 121.05 229.583 116.917C229.583 112.784 227.941 108.82 225.019 105.898C222.097 102.975 218.133 101.333 214 101.333Z" fill="black"/>
</g>
<defs>
<clipPath id="clip0_12_2">
<rect width="374" height="374" fill="white" transform="translate(27 39)"/>
</clipPath>
</defs>
</svg>
